# xmcd
#
# Track frame offsets:
#	150
#	18615
#	35776
#	51911
#	73221
#	85166
#	100259
#	115055
#	128046
#	157800
#	173314
#	186139
#	204539
#	220739
#	244522
#	259554
#	278243
#	290158
#	307542
#	320342
#	334420
#	346207
#	358673
#	372014
#
# Disc length: 5139 seconds
#
# Revision: 1
# Processed by: cddbd v1.5.2PL0 Copyright (c) Steve Scherf et al.
# Submitted via: audiograbber 1.83.01
#
DISCID=62141118
DTITLE=Various Artist - Sweet Soul Music (1970)
DYEAR=2009
DGENRE=Soul
TTITLE0=Johnnie Taylor - Love Bones
TTITLE1=Brook Benton - Rainy Night In Georgia
TTITLE2=Jr. Walker and The All Stars - Gotta Hold On To This Feeling
TTITLE3=Sly and The Family Stone - Thank You
TTITLE4=Chairmen Of The Board - Give Me Just A Little More Time
TTITLE5=The Delfonics - Didn't I (Blow Your Mind This Time)
TTITLE6=George Perkins and The Silver Stars - Cryin' In The Streets
TTITLE7=Tyrone Davis - Turn Back The Hands Of Time
TTITLE8=Little Sister - You're The One
TTITLE9=The Moments - Love On A Two-Way Street
TTITLE10=Freda Payne - Band Of Gold
TTITLE11=The Temptations - Ball Of Confusion (That's What The World Is Today)
TTITLE12=Paul Kelly - Stealin' In The Name Of The Lord
TTITLE13=James Brown - Get Up (I Feel Like Being A Sex Machine)
TTITLE14=Edwin Starr - War
TTITLE15=Luther Ingram - Ain't That Lovin' You (For More Reasons Than One)
TTITLE16=Stevie Wonder - Signed, Sealed, Delivered I'm Yours
TTITLE17=Charles Wright - Express Yourself
TTITLE18=Ann Peebles - Part Time Love
TTITLE19=The Spinners - It's A Shame
TTITLE20=Otis Leavill - Love Uprising
TTITLE21=100 Proof Aged In Soul - Somebody's Been Sleeping
TTITLE22=King Floyd - Groove Me
TTITLE23=Smokey Robinson and The Miracles - The Tears Of A Clown
EXTD=
EXTT0=
EXTT1=
EXTT2=
EXTT3=
EXTT4=
EXTT5=
EXTT6=
EXTT7=
EXTT8=
EXTT9=
EXTT10=
EXTT11=
EXTT12=
EXTT13=
EXTT14=
EXTT15=
EXTT16=
EXTT17=
EXTT18=
EXTT19=
EXTT20=
EXTT21=
EXTT22=
EXTT23=
PLAYORDER=
